<?xml version="1.0" encoding="iso-8859-1"?>
<!-- Generator: Adobe Illustrator 19.0.0, SVG Export Plug-In . SVG Version: 6.00 Build 0)  -->
<svg version="1.1" id="Capa_1" xmlns="http://www.w3.org/2000/svg" xmlns:xlink="http://www.w3.org/1999/xlink" x="0px" y="0px"
	 viewBox="0 0 464.007 464.007" style="enable-background:new 0 0 464.007 464.007;" xml:space="preserve">
<g>
	<g>
		<path d="M196.141,6.479l-12.88-5.776c-4.031-1.809-8.765-0.007-10.574,4.024c-0.796,1.773-0.919,3.775-0.346,5.632l26.264,85.344
			c23.783,77.53,19.938,160.908-10.88,235.92l-7.136,17.336c-1.683,4.085,0.264,8.761,4.349,10.445
			c0.968,0.399,2.005,0.604,3.051,0.603c0.562,0.001,1.122-0.058,1.672-0.176l17.832-3.824
			c60.887-12.956,123.869-12.46,184.544,1.456l10.152,2.344c4.304,0.996,8.602-1.685,9.598-5.99
			c0.117-0.508,0.185-1.025,0.202-1.546C417.302,203.771,331.884,66.93,196.141,6.479z M204.165,340.359l-2.968,0.64l1.352-3.28
			c32.223-78.447,36.241-165.642,11.368-246.72l-21.088-68.448c124.815,57.1,204.445,182.191,203.352,319.442l-0.52-0.13
			C332.697,327.445,267.347,326.931,204.165,340.359z"/>
	</g>
</g>
<g>
	<g>
		<path d="M163.797,43.543l-8.864-15.536c-2.193-3.836-7.08-5.167-10.916-2.974c-1.987,1.136-3.392,3.069-3.86,5.31l-15.6,74.88
			c-16.063,77.086-42.019,151.774-77.224,222.208l-10.504,21c-1.976,3.952-0.373,8.757,3.579,10.733
			c2.106,1.053,4.569,1.124,6.733,0.195c33.762-14.392,71.934-14.392,105.696,0c3.72,1.593,8.044,0.158,10.072-3.344
			C218.607,259.388,218.945,140.485,163.797,43.543z M152.461,341.983c-29.646-10.976-61.986-12.381-92.472-4.016l1.656-3.408
			c35.817-71.659,62.228-147.646,78.576-226.072l11.288-54.152C201.069,143.727,201.428,252.265,152.461,341.983z"/>
	</g>
</g>
<g>
	<g>
		<path d="M440.354,361.284c-1.301-0.839-2.817-1.283-4.365-1.277h-92.88c-29.259,0.009-58.423,3.329-86.936,9.896l-20,4.608
			c-27.32,6.304-55.266,9.49-83.304,9.496H27.989c-4.418,0-8,3.582-8,8c0,1.499,0.421,2.969,1.216,4.24l28.248,45.2
			c8.733,14.075,24.14,22.614,40.704,22.56h259.088c21.89,0.066,42.281-11.111,54-29.6l39.496-62.064
			C445.135,368.63,444.067,363.679,440.354,361.284z M389.741,425.783c-8.782,13.875-24.075,22.268-40.496,22.224H90.157
			c-11.042,0.034-21.313-5.658-27.136-15.04l-20.632-32.96h110.48c29.259-0.009,58.423-3.329,86.936-9.896l20-4.608
			c27.32-6.304,55.266-9.49,83.304-9.496h78.304L389.741,425.783z"/>
	</g>
</g>
<g>
</g>
<g>
</g>
<g>
</g>
<g>
</g>
<g>
</g>
<g>
</g>
<g>
</g>
<g>
</g>
<g>
</g>
<g>
</g>
<g>
</g>
<g>
</g>
<g>
</g>
<g>
</g>
<g>
</g>
</svg>
