<?xml version="1.0" encoding="UTF-8" standalone="no"?>
<svg
   xmlns:dc="http://purl.org/dc/elements/1.1/"
   xmlns:cc="http://creativecommons.org/ns#"
   xmlns:rdf="http://www.w3.org/1999/02/22-rdf-syntax-ns#"
   xmlns:svg="http://www.w3.org/2000/svg"
   xmlns="http://www.w3.org/2000/svg"
   xmlns:xlink="http://www.w3.org/1999/xlink"
   xmlns:sodipodi="http://sodipodi.sourceforge.net/DTD/sodipodi-0.dtd"
   xmlns:inkscape="http://www.inkscape.org/namespaces/inkscape"
   inkscape:version="1.0 (4035a4fb49, 2020-05-01)"
   inkscape:label="Jib"
   sodipodi:docname="boat-red.svg"
   xml:space="preserve"
   style="enable-background:new 0 0 464.007 464.007;"
   viewBox="0 0 464.007 464.007"
   y="0px"
   x="0px"
   id="Capa_1"
   version="1.1"><metadata
   id="metadata55"><rdf:RDF><cc:Work
       rdf:about=""><dc:format>image/svg+xml</dc:format><dc:type
         rdf:resource="http://purl.org/dc/dcmitype/StillImage" /><dc:title></dc:title></cc:Work></rdf:RDF></metadata><defs
   id="defs53"><linearGradient
     id="linearGradient938"
     inkscape:collect="always"><stop
       id="stop934"
       offset="0"
       style="stop-color:#f2f2f2;stop-opacity:1;" /><stop
       id="stop936"
       offset="1"
       style="stop-color:#f2f2f2;stop-opacity:0;" /></linearGradient><linearGradient
     id="linearGradient904"
     inkscape:collect="always"><stop
       id="stop900"
       offset="0"
       style="stop-color:#f1f1f1;stop-opacity:1;" /><stop
       id="stop902"
       offset="1"
       style="stop-color:#f1f1f1;stop-opacity:0;" /></linearGradient><radialGradient
     gradientUnits="userSpaceOnUse"
     gradientTransform="matrix(1,0,0,0.24704394,0,310.22325)"
     r="212.5135"
     fy="412.00711"
     fx="232.0025"
     cy="412.00711"
     cx="232.0025"
     id="radialGradient912"
     xlink:href="#linearGradient904"
     inkscape:collect="always" /><radialGradient
     gradientUnits="userSpaceOnUse"
     gradientTransform="matrix(1,0,0,1.9832673,0,-188.78085)"
     r="84.968163"
     fy="191.99341"
     fx="120.45303"
     cy="191.99341"
     cx="120.45303"
     id="radialGradient914"
     xlink:href="#linearGradient904"
     inkscape:collect="always" /><radialGradient
     gradientUnits="userSpaceOnUse"
     gradientTransform="matrix(1,0,0,1.4965011,0,-89.374111)"
     r="120.61887"
     fy="180.00787"
     fx="292.10449"
     cy="180.00787"
     cx="292.10449"
     id="radialGradient916"
     xlink:href="#linearGradient904"
     inkscape:collect="always" /><linearGradient
     gradientUnits="userSpaceOnUse"
     y2="397.96613"
     x2="441.5122"
     y1="397.96613"
     x1="16.743585"
     id="linearGradient940"
     xlink:href="#linearGradient938"
     inkscape:collect="always" /><linearGradient
     gradientUnits="userSpaceOnUse"
     y2="192.00185"
     x2="209.18851"
     y1="192.00185"
     x1="31.730447"
     id="linearGradient942"
     xlink:href="#linearGradient938"
     inkscape:collect="always" /><linearGradient
     gradientUnits="userSpaceOnUse"
     y2="173.93308"
     x2="461.68075"
     y1="173.93308"
     x1="184.25166"
     id="linearGradient944"
     xlink:href="#linearGradient938"
     inkscape:collect="always" /></defs><sodipodi:namedview
   inkscape:object-paths="true"
   inkscape:current-layer="Capa_1"
   inkscape:window-maximized="1"
   inkscape:window-y="-9"
   inkscape:window-x="-9"
   inkscape:cy="200.75564"
   inkscape:cx="232.00349"
   inkscape:zoom="1.2800878"
   showgrid="false"
   id="namedview51"
   inkscape:window-height="1011"
   inkscape:window-width="1920"
   inkscape:pageshadow="2"
   inkscape:pageopacity="0"
   guidetolerance="10"
   gridtolerance="10"
   objecttolerance="10"
   borderopacity="1"
   bordercolor="#666666"
   pagecolor="#ffffff" />
<g
   style="display:inline"
   inkscape:label="Background"
   id="layer1"
   inkscape:groupmode="layer"><rect
     y="-0.36246634"
     x="-0.78119648"
     height="469.08029"
     width="464.81186"
     id="rect890"
     style="font-variation-settings:normal;display:inline;opacity:1;vector-effect:none;fill:#333333;fill-opacity:1;fill-rule:evenodd;stroke-width:1.0087;stroke-linecap:butt;stroke-linejoin:miter;stroke-miterlimit:4;stroke-dasharray:none;stroke-dashoffset:0;stroke-opacity:1;stop-color:#000000;stop-opacity:1" /></g><g
   transform="matrix(1.0001428,0,0,0.96803874,-0.06262042,7.6164622)"
   style="display:inline;fill:#333333;fill-opacity:1;stroke:#f2918f;stroke-width:8.33367342;stroke-miterlimit:4;stroke-dasharray:none;stroke-dashoffset:0;stroke-opacity:1;opacity:0.99566664"
   id="g6">
	<g
   style="fill:#333333;fill-opacity:1;stroke:#f2918f;stroke-width:8.33367342;stroke-miterlimit:4;stroke-dasharray:none;stroke-dashoffset:0;stroke-opacity:1"
   id="g4">
		<path
   style="fill:#333333;fill-opacity:1;stroke:#f2918f;stroke-width:8.33367342;stroke-miterlimit:4;stroke-dasharray:none;stroke-dashoffset:0;stroke-opacity:1"
   id="path2"
   d="m 215.45946,17.94172 -14.42812,-5.192996 c -4.51551,-1.626406 -9.8185,-0.0063 -11.84494,3.617835 -0.89168,1.594041 -1.02945,3.393967 -0.38759,5.06353 l 29.42081,76.729734 C 244.86123,167.86428 240.55407,242.82644 206.0319,310.26706 l -7.99372,15.58617 c -1.88528,3.67267 0.29573,7.87669 4.87173,9.39073 1.08435,0.35872 2.246,0.54302 3.41771,0.54213 0.62955,8.9e-4 1.25686,-0.0521 1.87297,-0.15824 l 19.97532,-3.43802 c 68.20534,-11.64827 138.75747,-11.20234 206.7253,1.30903 l 11.37223,2.10741 c 4.82133,0.89547 9.63593,-1.51492 10.75164,-5.38539 0.13106,-0.45673 0.20724,-0.92155 0.22627,-1.38996 C 463.20296,195.31989 367.51812,72.291049 215.45946,17.94172 Z m 8.98844,300.17955 -3.32474,0.57541 1.51451,-2.94893 c 36.09604,-70.52889 40.59699,-148.9228 12.73438,-221.817124 L 211.74937,32.391479 C 351.56654,83.728045 440.76769,196.19288 439.54331,319.59034 l -0.58249,-0.11688 C 368.42884,306.51076 295.22408,306.04864 224.4479,318.12127 Z" />
	</g>
</g>
<g
   transform="matrix(0.96388119,0,0,0.95673211,1.1805234,7.8343153)"
   style="display:inline;opacity:0.99566664;fill:#333333;fill-opacity:1;stroke:#f2918f;stroke-width:8.53899825;stroke-miterlimit:4;stroke-dasharray:none;stroke-dashoffset:0;stroke-opacity:1"
   id="g12">
	<g
   style="fill:#333333;fill-opacity:1;stroke:#f2918f;stroke-width:8.53899825;stroke-miterlimit:4;stroke-dasharray:none;stroke-dashoffset:0;stroke-opacity:1"
   id="g10">
		<path
   style="fill:#333333;fill-opacity:1;stroke:#f2918f;stroke-width:8.53899825;stroke-miterlimit:4;stroke-dasharray:none;stroke-dashoffset:0;stroke-opacity:1"
   id="path8"
   d="m 163.797,43.543 -8.864,-15.536 c -2.193,-3.836 -7.08,-5.167 -10.916,-2.974 -1.987,1.136 -3.392,3.069 -3.86,5.31 l -15.6,74.88 C 108.494,182.309 82.538,256.997 47.333,327.431 l -10.504,21 c -1.976,3.952 -0.373,8.757 3.579,10.733 2.106,1.053 4.569,1.124 6.733,0.195 33.762,-14.392 71.934,-14.392 105.696,0 3.72,1.593 8.044,0.158 10.072,-3.344 55.698,-96.627 56.036,-215.53 0.888,-312.472 z m -11.336,298.44 C 122.815,331.007 90.475,329.602 59.989,337.967 l 1.656,-3.408 C 97.462,262.9 123.873,186.913 140.221,108.487 l 11.288,-54.152 c 49.56,89.392 49.919,197.93 0.952,287.648 z" />
	</g>
</g>
<g
   transform="matrix(1.0001428,0,0,0.96803874,-0.06262042,7.6164622)"
   style="display:inline;fill:#333333;fill-opacity:1;stroke:#f2918f;stroke-width:8.33367342;stroke-miterlimit:4;stroke-dasharray:none;stroke-dashoffset:0;stroke-opacity:1;opacity:0.99566664"
   id="g18">
	<g
   style="display:inline;fill:#333333;fill-opacity:1;stroke:#f2918f;stroke-width:8.33367342;stroke-miterlimit:4;stroke-dasharray:none;stroke-dashoffset:0;stroke-opacity:1"
   id="g16">
		<path
   d="m 433.74111,361.5171 c -17.28465,-2.11377 -34.99238,-0.25722 -52.45405,-0.90584 -47.01548,-0.40496 -94.76796,-0.35199 -140.37406,9.12943 -36.50054,6.36656 -74.07343,9.07667 -111.56727,8.12872 -33.939698,0 -67.879394,0 -101.81909,0 -18.6844117,6.72795 7.743931,21.24228 11.647374,30.34762 9.863018,13.17691 24.31815,27.30253 47.158919,27.0159 87.204867,0.41337 174.458337,0.1925 261.682217,0.1222 25.48434,-0.53179 46.18275,-14.41132 57.11711,-30.33847 10.54325,-12.60364 22.41079,-24.71219 32.10232,-37.63425 0.52387,-2.2223 -0.80791,-4.6758 -3.49347,-5.86531 z m -49.8581,46.41585 c -10.82436,13.76554 -34.39802,17.48644 -54.55022,15.99137 -81.75007,-0.10609 -163.51548,0.22462 -245.255941,-0.1692 -21.002925,-2.27641 -27.822903,-19.1672 -38.690405,-30.08314 -8.971999,-8.21156 16.014694,-2.76032 23.36678,-4.33257 42.578026,-0.27206 85.340886,1.2395 127.771006,-1.86699 45.07104,-4.55838 88.88651,-15.95072 134.8687,-15.1947 27.89306,-0.4778 55.79364,0.0237 83.68969,-0.16541 -10.39987,11.94022 -20.79974,23.88043 -31.19961,35.82064 z"
   style="display:inline;fill:#333333;fill-opacity:1;stroke:#f2918f;stroke-width:8.33367342;stroke-miterlimit:4;stroke-dasharray:none;stroke-dashoffset:0;stroke-opacity:1"
   id="path14" />
	</g>
</g>















</svg>
