<?xml version="1.0" encoding="UTF-8" standalone="no"?>
<svg
   xmlns:dc="http://purl.org/dc/elements/1.1/"
   xmlns:cc="http://creativecommons.org/ns#"
   xmlns:rdf="http://www.w3.org/1999/02/22-rdf-syntax-ns#"
   xmlns:svg="http://www.w3.org/2000/svg"
   xmlns="http://www.w3.org/2000/svg"
   xmlns:sodipodi="http://sodipodi.sourceforge.net/DTD/sodipodi-0.dtd"
   xmlns:inkscape="http://www.inkscape.org/namespaces/inkscape"
   inkscape:version="1.0 (4035a4fb49, 2020-05-01)"
   sodipodi:docname="boat-neg.svg"
   xml:space="preserve"
   style="enable-background:new 0 0 464.007 464.007;"
   viewBox="0 0 464.007 464.007"
   y="0px"
   x="0px"
   id="Capa_1"
   version="1.1"><metadata
   id="metadata55"><rdf:RDF><cc:Work
       rdf:about=""><dc:format>image/svg+xml</dc:format><dc:type
         rdf:resource="http://purl.org/dc/dcmitype/StillImage" /><dc:title /></cc:Work></rdf:RDF></metadata><defs
   id="defs53"><filter
     style="color-interpolation-filters:sRGB;"
     inkscape:label="Invert"
     id="filter864"><feColorMatrix
       values="-1 0 0 0 1 0 -1 0 0 1 0 0 -1 0 1 -0.21 -0.72 -0.07 2 0 "
       result="color2"
       id="feColorMatrix862" /></filter><filter
     style="color-interpolation-filters:sRGB;"
     inkscape:label="Invert"
     id="filter868"><feColorMatrix
       values="-1 0 0 0 1 0 -1 0 0 1 0 0 -1 0 1 -0.21 -0.72 -0.07 2 0 "
       result="color2"
       id="feColorMatrix866" /></filter><filter
     style="color-interpolation-filters:sRGB;"
     inkscape:label="Invert"
     id="filter872"><feColorMatrix
       values="-1 0 0 0 1 0 -1 0 0 1 0 0 -1 0 1 -0.21 -0.72 -0.07 2 0 "
       result="color2"
       id="feColorMatrix870" /></filter><filter
     style="color-interpolation-filters:sRGB;"
     inkscape:label="Invert"
     id="filter876"><feColorMatrix
       values="-1 0 0 0 1 0 -1 0 0 1 0 0 -1 0 1 -0.21 -0.72 -0.07 2 0 "
       result="color2"
       id="feColorMatrix874" /></filter><filter
     style="color-interpolation-filters:sRGB;"
     inkscape:label="Invert"
     id="filter880"><feColorMatrix
       values="-1 0 0 0 1 0 -1 0 0 1 0 0 -1 0 1 -0.21 -0.72 -0.07 2 0 "
       result="color2"
       id="feColorMatrix878" /></filter><filter
     style="color-interpolation-filters:sRGB;"
     inkscape:label="Invert"
     id="filter884"><feColorMatrix
       values="-1 0 0 0 1 0 -1 0 0 1 0 0 -1 0 1 -0.21 -0.72 -0.07 2 0 "
       result="color2"
       id="feColorMatrix882" /></filter><filter
     style="color-interpolation-filters:sRGB;"
     inkscape:label="Invert"
     id="filter888"><feColorMatrix
       values="-1 0 0 0 1 0 -1 0 0 1 0 0 -1 0 1 -0.21 -0.72 -0.07 2 0 "
       result="color2"
       id="feColorMatrix886" /></filter><filter
     style="color-interpolation-filters:sRGB;"
     inkscape:label="Invert"
     id="filter892"><feColorMatrix
       values="-1 0 0 0 1 0 -1 0 0 1 0 0 -1 0 1 -0.21 -0.72 -0.07 2 0 "
       result="color2"
       id="feColorMatrix890" /></filter><filter
     style="color-interpolation-filters:sRGB;"
     inkscape:label="Invert"
     id="filter896"><feColorMatrix
       values="-1 0 0 0 1 0 -1 0 0 1 0 0 -1 0 1 -0.21 -0.72 -0.07 2 0 "
       result="color2"
       id="feColorMatrix894" /></filter><filter
     style="color-interpolation-filters:sRGB;"
     inkscape:label="Invert"
     id="filter900"><feColorMatrix
       values="-1 0 0 0 1 0 -1 0 0 1 0 0 -1 0 1 -0.21 -0.72 -0.07 2 0 "
       result="color2"
       id="feColorMatrix898" /></filter><filter
     style="color-interpolation-filters:sRGB;"
     inkscape:label="Invert"
     id="filter904"><feColorMatrix
       values="-1 0 0 0 1 0 -1 0 0 1 0 0 -1 0 1 -0.21 -0.72 -0.07 2 0 "
       result="color2"
       id="feColorMatrix902" /></filter><filter
     style="color-interpolation-filters:sRGB;"
     inkscape:label="Invert"
     id="filter908"><feColorMatrix
       values="-1 0 0 0 1 0 -1 0 0 1 0 0 -1 0 1 -0.21 -0.72 -0.07 2 0 "
       result="color2"
       id="feColorMatrix906" /></filter><filter
     style="color-interpolation-filters:sRGB;"
     inkscape:label="Invert"
     id="filter912"><feColorMatrix
       values="-1 0 0 0 1 0 -1 0 0 1 0 0 -1 0 1 -0.21 -0.72 -0.07 2 0 "
       result="color2"
       id="feColorMatrix910" /></filter><filter
     style="color-interpolation-filters:sRGB;"
     inkscape:label="Invert"
     id="filter916"><feColorMatrix
       values="-1 0 0 0 1 0 -1 0 0 1 0 0 -1 0 1 -0.21 -0.72 -0.07 2 0 "
       result="color2"
       id="feColorMatrix914" /></filter><filter
     style="color-interpolation-filters:sRGB;"
     inkscape:label="Invert"
     id="filter920"><feColorMatrix
       values="-1 0 0 0 1 0 -1 0 0 1 0 0 -1 0 1 -0.21 -0.72 -0.07 2 0 "
       result="color2"
       id="feColorMatrix918" /></filter><filter
     style="color-interpolation-filters:sRGB;"
     inkscape:label="Invert"
     id="filter924"><feColorMatrix
       values="-1 0 0 0 1 0 -1 0 0 1 0 0 -1 0 1 -0.21 -0.72 -0.07 2 0 "
       result="color2"
       id="feColorMatrix922" /></filter><filter
     style="color-interpolation-filters:sRGB;"
     inkscape:label="Invert"
     id="filter928"><feColorMatrix
       values="-1 0 0 0 1 0 -1 0 0 1 0 0 -1 0 1 -0.21 -0.72 -0.07 2 0 "
       result="color2"
       id="feColorMatrix926" /></filter></defs><sodipodi:namedview
   inkscape:current-layer="g4"
   inkscape:window-maximized="0"
   inkscape:window-y="0"
   inkscape:window-x="0"
   inkscape:cy="289.98739"
   inkscape:cx="232.00349"
   inkscape:zoom="1.8103176"
   showgrid="false"
   id="namedview51"
   inkscape:window-height="941"
   inkscape:window-width="1621"
   inkscape:pageshadow="2"
   inkscape:pageopacity="0"
   guidetolerance="10"
   gridtolerance="10"
   objecttolerance="10"
   borderopacity="1"
   bordercolor="#666666"
   pagecolor="#ffffff"
   inkscape:document-rotation="0" />
<g
   id="g6"
   style="filter:url(#filter928)"
   inkscape:label="g6">
	<g
   id="g4">
		<rect
   style="font-variation-settings:normal;opacity:1;vector-effect:none;fill:#cbcbcb;fill-opacity:1;fill-rule:evenodd;stroke-width:1.00455;stroke-linecap:butt;stroke-linejoin:miter;stroke-miterlimit:4;stroke-dasharray:none;stroke-dashoffset:0;stroke-opacity:1;stop-color:#000000;stop-opacity:1"
   id="rect930"
   width="464.00696"
   height="466.21652"
   x="1.1047785"
   y="1.1047785" /><path
   id="path2"
   d="m 196.141,6.479 -12.88,-5.776 c -4.031,-1.809 -8.765,-0.007 -10.574,4.024 -0.796,1.773 -0.919,3.775 -0.346,5.632 l 26.264,85.344 c 23.783,77.53 19.938,160.908 -10.88,235.92 l -7.136,17.336 c -1.683,4.085 0.264,8.761 4.349,10.445 0.968,0.399 2.005,0.604 3.051,0.603 0.562,10e-4 1.122,-0.058 1.672,-0.176 l 17.832,-3.824 c 60.887,-12.956 123.869,-12.46 184.544,1.456 l 10.152,2.344 c 4.304,0.996 8.602,-1.685 9.598,-5.99 0.117,-0.508 0.185,-1.025 0.202,-1.546 C 417.302,203.771 331.884,66.93 196.141,6.479 Z m 8.024,333.88 -2.968,0.64 1.352,-3.28 C 234.772,259.272 238.79,172.077 213.917,90.999 L 192.829,22.551 c 124.815,57.1 204.445,182.191 203.352,319.442 l -0.52,-0.13 C 332.697,327.445 267.347,326.931 204.165,340.359 Z" />
	</g>
</g>
<g
   id="g12"
   style="filter:url(#filter924)">
	<g
   id="g10">
		<path
   id="path8"
   d="m 163.797,43.543 -8.864,-15.536 c -2.193,-3.836 -7.08,-5.167 -10.916,-2.974 -1.987,1.136 -3.392,3.069 -3.86,5.31 l -15.6,74.88 C 108.494,182.309 82.538,256.997 47.333,327.431 l -10.504,21 c -1.976,3.952 -0.373,8.757 3.579,10.733 2.106,1.053 4.569,1.124 6.733,0.195 33.762,-14.392 71.934,-14.392 105.696,0 3.72,1.593 8.044,0.158 10.072,-3.344 55.698,-96.627 56.036,-215.53 0.888,-312.472 z m -11.336,298.44 C 122.815,331.007 90.475,329.602 59.989,337.967 l 1.656,-3.408 C 97.462,262.9 123.873,186.913 140.221,108.487 l 11.288,-54.152 c 49.56,89.392 49.919,197.93 0.952,287.648 z" />
	</g>
</g>
<g
   id="g18"
   style="filter:url(#filter920)">
	<g
   id="g16">
		<path
   id="path14"
   d="m 440.354,361.284 c -1.301,-0.839 -2.817,-1.283 -4.365,-1.277 h -92.88 c -29.259,0.009 -58.423,3.329 -86.936,9.896 l -20,4.608 c -27.32,6.304 -55.266,9.49 -83.304,9.496 H 27.989 c -4.418,0 -8,3.582 -8,8 0,1.499 0.421,2.969 1.216,4.24 l 28.248,45.2 c 8.733,14.075 24.14,22.614 40.704,22.56 h 259.088 c 21.89,0.066 42.281,-11.111 54,-29.6 l 39.496,-62.064 c 2.394,-3.713 1.326,-8.664 -2.387,-11.059 z m -50.613,64.499 c -8.782,13.875 -24.075,22.268 -40.496,22.224 H 90.157 c -11.042,0.034 -21.313,-5.658 -27.136,-15.04 l -20.632,-32.96 h 110.48 c 29.259,-0.009 58.423,-3.329 86.936,-9.896 l 20,-4.608 c 27.32,-6.304 55.266,-9.49 83.304,-9.496 h 78.304 z" />
	</g>
</g>
<g
   id="g20"
   style="filter:url(#filter916)">
</g>
<g
   id="g22"
   style="filter:url(#filter912)">
</g>
<g
   id="g24"
   style="filter:url(#filter908)">
</g>
<g
   id="g26"
   style="filter:url(#filter904)">
</g>
<g
   id="g28"
   style="filter:url(#filter900)">
</g>
<g
   id="g30"
   style="filter:url(#filter896)">
</g>
<g
   id="g32"
   style="filter:url(#filter892)">
</g>
<g
   id="g34"
   style="filter:url(#filter888)">
</g>
<g
   id="g36"
   style="filter:url(#filter884)">
</g>
<g
   id="g38"
   style="filter:url(#filter880)">
</g>
<g
   id="g40"
   style="filter:url(#filter876)">
</g>
<g
   id="g42"
   style="filter:url(#filter872)">
</g>
<g
   id="g44"
   style="filter:url(#filter868)">
</g>
<g
   id="g46"
   style="filter:url(#filter864)">
</g>
<g
   inkscape:groupmode="layer"
   id="g48">
</g>
</svg>
