<?xml version="1.0" encoding="UTF-8" standalone="no"?>
<svg
   xmlns:dc="http://purl.org/dc/elements/1.1/"
   xmlns:cc="http://creativecommons.org/ns#"
   xmlns:rdf="http://www.w3.org/1999/02/22-rdf-syntax-ns#"
   xmlns:svg="http://www.w3.org/2000/svg"
   xmlns="http://www.w3.org/2000/svg"
   xmlns:xlink="http://www.w3.org/1999/xlink"
   xmlns:sodipodi="http://sodipodi.sourceforge.net/DTD/sodipodi-0.dtd"
   xmlns:inkscape="http://www.inkscape.org/namespaces/inkscape"
   version="1.1"
   id="Capa_1"
   x="0px"
   y="0px"
   viewBox="0 0 464.007 464.007"
   style="enable-background:new 0 0 464.007 464.007;"
   xml:space="preserve"
   sodipodi:docname="pypilot.svg"
   inkscape:version="1.0 (4035a4fb49, 2020-05-01)"><metadata
   id="metadata55"><rdf:RDF><cc:Work
       rdf:about=""><dc:format>image/svg+xml</dc:format><dc:type
         rdf:resource="http://purl.org/dc/dcmitype/StillImage" /><dc:title /></cc:Work></rdf:RDF></metadata><defs
   id="defs53"><linearGradient
     id="linearGradient901"
     inkscape:collect="always"><stop
       id="stop897"
       offset="0"
       style="stop-color:#9a9a9a;stop-opacity:1;" /><stop
       id="stop899"
       offset="1"
       style="stop-color:#9a9a9a;stop-opacity:0;" /></linearGradient><filter
     id="filter864"
     inkscape:label="Invert"
     style="color-interpolation-filters:sRGB;"><feColorMatrix
       id="feColorMatrix862"
       result="color2"
       values="-1 0 0 0 1 0 -1 0 0 1 0 0 -1 0 1 -0.21 -0.72 -0.07 2 0 " /></filter><filter
     id="filter868"
     inkscape:label="Invert"
     style="color-interpolation-filters:sRGB;"><feColorMatrix
       id="feColorMatrix866"
       result="color2"
       values="-1 0 0 0 1 0 -1 0 0 1 0 0 -1 0 1 -0.21 -0.72 -0.07 2 0 " /></filter><filter
     id="filter872"
     inkscape:label="Invert"
     style="color-interpolation-filters:sRGB;"><feColorMatrix
       id="feColorMatrix870"
       result="color2"
       values="-1 0 0 0 1 0 -1 0 0 1 0 0 -1 0 1 -0.21 -0.72 -0.07 2 0 " /></filter><filter
     id="filter876"
     inkscape:label="Invert"
     style="color-interpolation-filters:sRGB;"><feColorMatrix
       id="feColorMatrix874"
       result="color2"
       values="-1 0 0 0 1 0 -1 0 0 1 0 0 -1 0 1 -0.21 -0.72 -0.07 2 0 " /></filter><filter
     id="filter880"
     inkscape:label="Invert"
     style="color-interpolation-filters:sRGB;"><feColorMatrix
       id="feColorMatrix878"
       result="color2"
       values="-1 0 0 0 1 0 -1 0 0 1 0 0 -1 0 1 -0.21 -0.72 -0.07 2 0 " /></filter><filter
     id="filter884"
     inkscape:label="Invert"
     style="color-interpolation-filters:sRGB;"><feColorMatrix
       id="feColorMatrix882"
       result="color2"
       values="-1 0 0 0 1 0 -1 0 0 1 0 0 -1 0 1 -0.21 -0.72 -0.07 2 0 " /></filter><filter
     id="filter888"
     inkscape:label="Invert"
     style="color-interpolation-filters:sRGB;"><feColorMatrix
       id="feColorMatrix886"
       result="color2"
       values="-1 0 0 0 1 0 -1 0 0 1 0 0 -1 0 1 -0.21 -0.72 -0.07 2 0 " /></filter><filter
     id="filter892"
     inkscape:label="Invert"
     style="color-interpolation-filters:sRGB;"><feColorMatrix
       id="feColorMatrix890"
       result="color2"
       values="-1 0 0 0 1 0 -1 0 0 1 0 0 -1 0 1 -0.21 -0.72 -0.07 2 0 " /></filter><filter
     id="filter896"
     inkscape:label="Invert"
     style="color-interpolation-filters:sRGB;"><feColorMatrix
       id="feColorMatrix894"
       result="color2"
       values="-1 0 0 0 1 0 -1 0 0 1 0 0 -1 0 1 -0.21 -0.72 -0.07 2 0 " /></filter><filter
     id="filter900"
     inkscape:label="Invert"
     style="color-interpolation-filters:sRGB;"><feColorMatrix
       id="feColorMatrix898"
       result="color2"
       values="-1 0 0 0 1 0 -1 0 0 1 0 0 -1 0 1 -0.21 -0.72 -0.07 2 0 " /></filter><filter
     id="filter904"
     inkscape:label="Invert"
     style="color-interpolation-filters:sRGB;"><feColorMatrix
       id="feColorMatrix902"
       result="color2"
       values="-1 0 0 0 1 0 -1 0 0 1 0 0 -1 0 1 -0.21 -0.72 -0.07 2 0 " /></filter><filter
     id="filter908"
     inkscape:label="Invert"
     style="color-interpolation-filters:sRGB;"><feColorMatrix
       id="feColorMatrix906"
       result="color2"
       values="-1 0 0 0 1 0 -1 0 0 1 0 0 -1 0 1 -0.21 -0.72 -0.07 2 0 " /></filter><filter
     id="filter912"
     inkscape:label="Invert"
     style="color-interpolation-filters:sRGB;"><feColorMatrix
       id="feColorMatrix910"
       result="color2"
       values="-1 0 0 0 1 0 -1 0 0 1 0 0 -1 0 1 -0.21 -0.72 -0.07 2 0 " /></filter><filter
     id="filter916"
     inkscape:label="Invert"
     style="color-interpolation-filters:sRGB;"><feColorMatrix
       id="feColorMatrix914"
       result="color2"
       values="-1 0 0 0 1 0 -1 0 0 1 0 0 -1 0 1 -0.21 -0.72 -0.07 2 0 " /></filter><filter
     id="filter920"
     inkscape:label="Invert"
     style="color-interpolation-filters:sRGB;"><feColorMatrix
       id="feColorMatrix918"
       result="color2"
       values="-1 0 0 0 1 0 -1 0 0 1 0 0 -1 0 1 -0.21 -0.72 -0.07 2 0 " /></filter><filter
     id="filter924"
     inkscape:label="Invert"
     style="color-interpolation-filters:sRGB;"><feColorMatrix
       id="feColorMatrix922"
       result="color2"
       values="-1 0 0 0 1 0 -1 0 0 1 0 0 -1 0 1 -0.21 -0.72 -0.07 2 0 " /></filter><filter
     id="filter928"
     inkscape:label="Invert"
     style="color-interpolation-filters:sRGB;"><feColorMatrix
       id="feColorMatrix926"
       result="color2"
       values="-1 0 0 0 1 0 -1 0 0 1 0 0 -1 0 1 -0.21 -0.72 -0.07 2 0 " /></filter><linearGradient
     gradientUnits="userSpaceOnUse"
     y2="412.31105"
     x2="481.26572"
     y1="412.31105"
     x1="-21.945246"
     id="linearGradient903"
     xlink:href="#linearGradient901"
     inkscape:collect="always" /><linearGradient
     gradientUnits="userSpaceOnUse"
     y2="190.42991"
     x2="246.1106"
     y1="190.42991"
     x1="23.698051"
     id="linearGradient905"
     xlink:href="#linearGradient901"
     inkscape:collect="always" /><linearGradient
     gradientUnits="userSpaceOnUse"
     y2="234.21304"
     x2="511.51243"
     y1="234.21304"
     x1="-45.295917"
     id="linearGradient907"
     xlink:href="#linearGradient901"
     inkscape:collect="always" /></defs><sodipodi:namedview
   inkscape:document-rotation="0"
   pagecolor="#ffffff"
   bordercolor="#666666"
   borderopacity="1"
   objecttolerance="10"
   gridtolerance="10"
   guidetolerance="10"
   inkscape:pageopacity="0"
   inkscape:pageshadow="2"
   inkscape:window-width="1920"
   inkscape:window-height="1011"
   id="namedview51"
   showgrid="false"
   inkscape:zoom="1.2800879"
   inkscape:cx="232.00349"
   inkscape:cy="277.0441"
   inkscape:window-x="-9"
   inkscape:window-y="-9"
   inkscape:window-maximized="1"
   inkscape:current-layer="Capa_1" />
<g
   inkscape:label="Background"
   id="layer1"
   inkscape:groupmode="layer"><rect
     y="1.1047785"
     x="1.1047785"
     height="466.21652"
     width="464.00696"
     id="rect930"
     style="font-variation-settings:normal;display:inline;opacity:1;vector-effect:none;fill:#2d2d2d;fill-opacity:1;fill-rule:evenodd;stroke:#909090;stroke-width:1.3;stroke-linecap:butt;stroke-linejoin:miter;stroke-miterlimit:4;stroke-dasharray:none;stroke-dashoffset:0;stroke-opacity:1;stop-color:#000000;stop-opacity:1" /></g><g
   inkscape:label="Jib"
   style="display:inline;stroke:#585858;stroke-width:4.7;stroke-miterlimit:4;stroke-dasharray:none;stroke-opacity:1;filter:url(#filter928)"
   id="g6">
	<g
   inkscape:label="Jib"
   style="display:inline;stroke:#585858;stroke-width:4.7;stroke-miterlimit:4;stroke-dasharray:none;stroke-opacity:1"
   id="g4">
		<path
   style="display:inline;stroke:#585858;stroke-width:4.7;stroke-miterlimit:4;stroke-dasharray:none;stroke-opacity:1"
   d="M 236.59756,14.248787 224.63897,8.5103866 c -3.74262,-1.7972239 -8.13796,-0.00695 -9.81754,3.9978054 -0.73905,1.761458 -0.85325,3.750426 -0.32125,5.595337 l 24.38511,84.788431 c 22.08159,77.02531 18.51165,159.86053 -10.10166,234.38423 l -6.62551,17.22315 c -1.56259,4.0584 0.24513,8.70397 4.03788,10.37701 0.89875,0.3964 1.86157,0.60006 2.83274,0.59907 0.5218,9.9e-4 1.04173,-0.0576 1.55238,-0.17485 l 16.55633,-3.79911 c 56.53122,-12.87166 115.00757,-12.37889 171.34195,1.44652 l 9.42574,2.32874 c 3.99609,0.98952 7.98662,-1.67403 8.91136,-5.95101 0.10859,-0.50469 0.17177,-1.01832 0.18755,-1.53593 C 441.93697,210.25647 362.62967,74.306269 236.59756,14.248787 Z m 7.44998,331.706533 -2.75568,0.63583 1.25528,-3.25865 C 272.46494,265.39618 276.1955,178.76879 253.10188,98.218586 L 233.52249,30.216163 C 349.40838,86.944459 423.34174,211.22115 422.32694,347.57869 l -0.48281,-0.12916 c -58.45962,-14.32414 -119.13456,-14.8348 -177.79659,-1.49421 z"
   id="path2" />
	</g>
</g>
<g
   inkscape:label="Main"
   style="display:inline;stroke:#585858;stroke-width:4.7;stroke-miterlimit:4;stroke-dasharray:none;stroke-opacity:1;filter:url(#filter924)"
   id="g12">
	<g
   inkscape:label="Main"
   style="display:inline;stroke:#585858;stroke-width:4.7;stroke-miterlimit:4;stroke-dasharray:none;stroke-opacity:1"
   id="g10">
		<path
   style="display:inline;stroke:#585858;stroke-width:4.7;stroke-miterlimit:4;stroke-dasharray:none;stroke-opacity:1"
   d="m 182.45822,48.882818 -9.72475,-14.813647 c -2.40596,-3.657644 -7.76752,-4.926759 -11.97602,-2.835723 -2.17996,1.083181 -3.72139,2.926306 -4.23484,5.063109 L 139.40774,107.69498 C 121.78491,181.19683 93.308406,252.41219 54.684749,319.57133 l -11.524012,20.02359 c -2.167883,3.76825 -0.409221,8.34984 3.926546,10.23397 2.310507,1.00404 5.012682,1.07174 7.386821,0.18593 37.040532,-13.72284 78.919296,-13.72284 115.959826,0 4.08124,1.51894 8.82513,0.15066 11.05006,-3.18852 61.10667,-92.13428 61.47749,-205.50884 0.97423,-297.943482 z M 170.02142,333.44673 C 137.49658,322.98106 102.01614,321.64139 68.569735,329.61745 l 1.816809,-3.24954 C 109.68163,258.04072 138.65732,185.58677 156.59283,110.80722 l 12.38414,-51.63418 c 54.37262,85.23568 54.76648,188.72716 1.04445,274.27369 z"
   id="path8" />
	</g>
</g>
<g
   inkscape:label="Hull"
   style="display:inline;stroke:#585858;stroke-width:4.7;stroke-miterlimit:4;stroke-dasharray:none;stroke-opacity:1;filter:url(#filter920)"
   id="g18">
	<g
   inkscape:label="Hull"
   style="display:inline;stroke:#585858;stroke-width:4.7;stroke-miterlimit:4;stroke-dasharray:none;stroke-opacity:1"
   id="g16">
		<path
   style="display:inline;stroke:#585858;stroke-width:4.7;stroke-miterlimit:4;stroke-dasharray:none;stroke-opacity:1"
   d="m 435.70733,377.64415 c -1.28662,-0.57342 -2.78586,-0.87687 -4.31675,-0.87277 h -91.85331 c -28.93558,0.006 -57.7772,2.27522 -85.97502,6.76346 l -19.77892,3.14935 c -27.01801,4.30849 -54.6551,6.48597 -82.38317,6.49008 H 27.900569 c -4.369164,0 -7.911569,2.44813 -7.911569,5.46762 0,1.0245 0.416346,2.02918 1.202558,2.89785 l 27.93575,30.8921 c 8.636466,9.61961 23.873159,15.45562 40.254062,15.41871 h 256.22407 c 21.64803,0.0451 41.81363,-7.59385 53.40309,-20.23023 l 39.05941,-42.41787 c 2.36754,-2.53765 1.31135,-5.92144 -2.36061,-7.5583 z m -50.05353,44.08207 c -8.68492,9.48292 -23.80888,15.21914 -40.04836,15.18907 H 89.38137 c -10.919943,0.0232 -21.077408,-3.86698 -26.836041,-10.27913 L 42.141393,404.10953 H 151.40016 c 28.93557,-0.006 57.7772,-2.27522 85.97502,-6.76347 l 19.77892,-3.14935 c 27.01801,-4.30849 54.6551,-6.48597 82.38317,-6.49007 h 77.43843 z"
   id="path14" />
	</g>
</g>















</svg>
