<?xml version="1.0" encoding="UTF-8" standalone="no"?>
<svg
   inkscape:version="1.1.1 (3bf5ae0d25, 2021-09-20)"
   inkscape:label="Jib"
   sodipodi:docname="pypilot_panel.svg"
   xml:space="preserve"
   viewBox="0 0 32.000001 32.000001"
   y="0px"
   x="0px"
   id="Capa_1"
   version="1.1"
   width="32"
   height="32"
   xmlns:inkscape="http://www.inkscape.org/namespaces/inkscape"
   xmlns:sodipodi="http://sodipodi.sourceforge.net/DTD/sodipodi-0.dtd"
   xmlns:xlink="http://www.w3.org/1999/xlink"
   xmlns="http://www.w3.org/2000/svg"
   xmlns:svg="http://www.w3.org/2000/svg"
   xmlns:rdf="http://www.w3.org/1999/02/22-rdf-syntax-ns#"
   xmlns:cc="http://creativecommons.org/ns#"
   xmlns:dc="http://purl.org/dc/elements/1.1/"><metadata
   id="metadata55"><rdf:RDF><cc:Work
       rdf:about=""><dc:format>image/svg+xml</dc:format><dc:type
         rdf:resource="http://purl.org/dc/dcmitype/StillImage" /><dc:title /></cc:Work></rdf:RDF></metadata><defs
   id="defs53"><linearGradient
     id="linearGradient904"
     inkscape:collect="always"><stop
       id="stop900"
       offset="0"
       style="stop-color:#f1f1f1;stop-opacity:1;" /><stop
       id="stop902"
       offset="1"
       style="stop-color:#f1f1f1;stop-opacity:0;" /></linearGradient><radialGradient
     gradientUnits="userSpaceOnUse"
     gradientTransform="matrix(1,0,0,0.24704394,0,310.22325)"
     r="212.5135"
     fy="412.00711"
     fx="232.0025"
     cy="412.00711"
     cx="232.0025"
     id="radialGradient912"
     xlink:href="#linearGradient904"
     inkscape:collect="always" /><radialGradient
     gradientUnits="userSpaceOnUse"
     gradientTransform="matrix(1,0,0,1.9832673,0,-188.78085)"
     r="84.968163"
     fy="191.99341"
     fx="120.45303"
     cy="191.99341"
     cx="120.45303"
     id="radialGradient914"
     xlink:href="#linearGradient904"
     inkscape:collect="always" /><radialGradient
     gradientUnits="userSpaceOnUse"
     gradientTransform="matrix(1,0,0,1.4965011,0,-89.374111)"
     r="120.61887"
     fy="180.00787"
     fx="292.10449"
     cy="180.00787"
     cx="292.10449"
     id="radialGradient916"
     xlink:href="#linearGradient904"
     inkscape:collect="always" /></defs><sodipodi:namedview
   inkscape:object-paths="true"
   inkscape:current-layer="Capa_1"
   inkscape:window-maximized="1"
   inkscape:window-y="-8"
   inkscape:window-x="-8"
   inkscape:cy="17.883603"
   inkscape:cx="21.094366"
   inkscape:zoom="14.48254"
   showgrid="false"
   id="namedview51"
   inkscape:window-height="1122"
   inkscape:window-width="1920"
   inkscape:pageshadow="2"
   inkscape:pageopacity="0"
   guidetolerance="10"
   gridtolerance="10"
   objecttolerance="10"
   borderopacity="1"
   bordercolor="#666666"
   pagecolor="#ffffff"
   inkscape:document-rotation="0"
   inkscape:pagecheckerboard="0" />
<g
   style="display:inline"
   inkscape:label="Background"
   id="layer1"
   inkscape:groupmode="layer"
   transform="translate(0.78119648,0.36246634)"><rect
     y="-0.36246634"
     x="-0.78119648"
     height="32"
     width="32"
     id="rect890"
     style="font-variation-settings:normal;display:inline;opacity:1;vector-effect:none;fill:#e6e6e6;fill-opacity:1;fill-rule:evenodd;stroke-width:0.0691273;stroke-linecap:butt;stroke-linejoin:miter;stroke-miterlimit:4;stroke-dasharray:none;stroke-dashoffset:0;stroke-opacity:1;stop-color:#000000;stop-opacity:1"
     inkscape:export-filename="C:\Users\fcgle\source\pypilot_pi\data\new.png"
     inkscape:export-xdpi="96"
     inkscape:export-ydpi="96" /></g><g
   inkscape:label="Jib"
   transform="matrix(0.06885489,0,0,0.06603825,0.04946292,0.54432032)"
   style="display:inline;opacity:0.995667;fill:#cbcbcb;fill-opacity:1;stroke:#a2a2a2;stroke-width:8.33367;stroke-miterlimit:4;stroke-dasharray:none;stroke-dashoffset:0;stroke-opacity:1"
   id="g6"
   inkscape:export-filename="C:\Users\fcgle\source\pypilot_pi\data\new.png"
   inkscape:export-xdpi="96"
   inkscape:export-ydpi="96">
	<g
   inkscape:label="Jib"
   style="fill:#cbcbcb;fill-opacity:1;stroke:#a2a2a2;stroke-width:8.33367;stroke-miterlimit:4;stroke-dasharray:none;stroke-dashoffset:0;stroke-opacity:1"
   id="g4">
		<path
   style="fill:#4d4d4d;fill-opacity:1;stroke:#535353;stroke-width:4.06521;stroke-miterlimit:4;stroke-dasharray:none;stroke-dashoffset:0;stroke-opacity:1"
   id="path2"
   d="m 215.45946,17.94172 -14.42812,-5.192996 c -4.51551,-1.626406 -9.8185,-0.0063 -11.84494,3.617835 -0.89168,1.594041 -1.02945,3.393967 -0.38759,5.06353 l 29.42081,76.729734 C 244.86123,167.86428 240.55407,242.82644 206.0319,310.26706 l -7.99372,15.58617 c -1.88528,3.67267 0.29573,7.87669 4.87173,9.39073 1.08435,0.35872 2.246,0.54302 3.41771,0.54213 0.62955,8.9e-4 1.25686,-0.0521 1.87297,-0.15824 l 19.97532,-3.43802 c 68.20534,-11.64827 138.75747,-11.20234 206.7253,1.30903 l 11.37223,2.10741 c 4.82133,0.89547 9.63593,-1.51492 10.75164,-5.38539 0.13106,-0.45673 0.20724,-0.92155 0.22627,-1.38996 C 463.20296,195.31989 367.51812,72.291049 215.45946,17.94172 Z m 8.98844,300.17955 -3.32474,0.57541 1.51451,-2.94893 c 36.09604,-70.52889 40.59699,-148.9228 12.73438,-221.817124 L 211.74937,32.391479 C 351.56654,83.728045 440.76769,196.19288 439.54331,319.59034 l -0.58249,-0.11688 C 368.42884,306.51076 295.22408,306.04864 224.4479,318.12127 Z" />
	</g>
</g>
<g
   inkscape:label="Main"
   transform="matrix(0.06635846,0,0,0.06526692,0.13504292,0.55918032)"
   style="display:inline;opacity:0.995667;fill:#cbcbcb;fill-opacity:1;stroke:#a2a2a2;stroke-width:8.539;stroke-miterlimit:4;stroke-dasharray:none;stroke-dashoffset:0;stroke-opacity:1"
   id="g12"
   inkscape:export-filename="C:\Users\fcgle\source\pypilot_pi\data\new.png"
   inkscape:export-xdpi="96"
   inkscape:export-ydpi="96">
	<g
   inkscape:label="Main"
   style="fill:#cbcbcb;fill-opacity:1;stroke:#a2a2a2;stroke-width:8.539;stroke-miterlimit:4;stroke-dasharray:none;stroke-dashoffset:0;stroke-opacity:1"
   id="g10">
		<path
   style="display:inline;fill:#565656;fill-opacity:1;stroke:#535353;stroke-width:4.16537;stroke-miterlimit:4;stroke-dasharray:none;stroke-dashoffset:0;stroke-opacity:1"
   id="path8"
   d="m 163.797,43.543 -8.864,-15.536 c -2.193,-3.836 -7.08,-5.167 -10.916,-2.974 -1.987,1.136 -3.392,3.069 -3.86,5.31 l -15.6,74.88 C 108.494,182.309 82.538,256.997 47.333,327.431 l -10.504,21 c -1.976,3.952 -0.373,8.757 3.579,10.733 2.106,1.053 4.569,1.124 6.733,0.195 33.762,-14.392 71.934,-14.392 105.696,0 3.72,1.593 8.044,0.158 10.072,-3.344 55.698,-96.627 56.036,-215.53 0.888,-312.472 z m -11.336,298.44 C 122.815,331.007 90.475,329.602 59.989,337.967 l 1.656,-3.408 C 97.462,262.9 123.873,186.913 140.221,108.487 l 11.288,-54.152 c 49.56,89.392 49.919,197.93 0.952,287.648 z" />
	</g>
</g>
<g
   inkscape:label="Hull"
   transform="matrix(0.06885489,0,0,0.06603825,0.04946292,0.54432032)"
   style="display:inline;opacity:0.995667;fill:#cbcbcb;fill-opacity:1;stroke:#a2a2a2;stroke-width:8.33367;stroke-miterlimit:4;stroke-dasharray:none;stroke-dashoffset:0;stroke-opacity:1"
   id="g18"
   inkscape:export-filename="C:\Users\fcgle\source\pypilot_pi\data\new.png"
   inkscape:export-xdpi="96"
   inkscape:export-ydpi="96">
	<g
   inkscape:label="Hull"
   style="display:inline;fill:#535353;fill-opacity:1;stroke:#5b5b5b;stroke-width:6.09781;stroke-miterlimit:4;stroke-dasharray:none;stroke-dashoffset:0;stroke-opacity:1"
   id="g16">
		<path
   d="m 433.74111,361.5171 c -17.28465,-2.11377 -34.99238,-0.25722 -52.45405,-0.90584 -47.01548,-0.40496 -94.76796,-0.35199 -140.37406,9.12943 -36.50054,6.36656 -74.07343,9.07667 -111.56727,8.12872 -33.939698,0 -67.879394,0 -101.81909,0 -18.6844117,6.72795 7.743931,21.24228 11.647374,30.34762 9.863018,13.17691 24.31815,27.30253 47.158919,27.0159 87.204867,0.41337 174.458337,0.1925 261.682217,0.1222 25.48434,-0.53179 46.18275,-14.41132 57.11711,-30.33847 10.54325,-12.60364 22.41079,-24.71219 32.10232,-37.63425 0.52387,-2.2223 -0.80791,-4.6758 -3.49347,-5.86531 z m -49.8581,46.41585 c -10.82436,13.76554 -34.39802,17.48644 -54.55022,15.99137 -81.75007,-0.10609 -163.51548,0.22462 -245.255941,-0.1692 -21.002925,-2.27641 -27.822903,-19.1672 -38.690405,-30.08314 -8.971999,-8.21156 16.014694,-2.76032 23.36678,-4.33257 42.578026,-0.27206 85.340886,1.2395 127.771006,-1.86699 45.07104,-4.55838 88.88651,-15.95072 134.8687,-15.1947 27.89306,-0.4778 55.79364,0.0237 83.68969,-0.16541 -10.39987,11.94022 -20.79974,23.88043 -31.19961,35.82064 z"
   style="display:inline;fill:#535353;fill-opacity:1;stroke:#5b5b5b;stroke-width:6.09781;stroke-miterlimit:4;stroke-dasharray:none;stroke-dashoffset:0;stroke-opacity:1"
   id="path14" />
	</g>
</g>















</svg>
